<svg width="24" height="24" viewBox="0 0 24 24" fill="none" xmlns="http://www.w3.org/2000/svg">
<path d="M12 23.34C18.2629 23.34 23.34 18.2629 23.34 12C23.34 5.73709 18.2629 0.660004 12 0.660004C5.73709 0.660004 0.660004 5.73709 0.660004 12C0.660004 18.2629 5.73709 23.34 12 23.34Z" fill="#2C374B"/>
<path fill-rule="evenodd" clip-rule="evenodd" d="M18.1403 7.98923C18.0302 7.88387 13.136 5.03452 12.5709 4.74719C12.3219 4.61789 11.8622 4.58437 11.5988 4.67536C11.2923 4.77593 6.11077 7.79767 5.90006 7.99402C5.79471 8.09458 5.66541 8.26219 5.61273 8.36755C5.52174 8.55431 5.51696 8.68361 5.50259 12.1364L5.49301 15.7088L6.15387 16.0967C6.51782 16.3074 6.84346 16.4846 6.86741 16.4942C6.92008 16.5086 11.6227 9.01883 11.6227 8.91826C11.6227 8.84643 10.5596 8.86079 10.1813 8.93742C9.78859 9.02361 9.4438 9.19601 9.24745 9.40672C9.16604 9.49292 8.50997 10.4794 7.79165 11.6C7.07332 12.7206 6.46993 13.6544 6.44599 13.6784C6.42204 13.7071 6.40289 12.6679 6.40289 11.2456V8.76502L6.53698 8.6453C6.76684 8.43459 11.8574 5.51819 11.9915 5.51819C12.1207 5.51819 12.1926 5.55651 13.3706 6.23652C13.7681 6.46638 14.8312 7.07935 15.7411 7.59654C16.651 8.11853 17.4411 8.59741 17.5034 8.65967L17.6087 8.77939V13.9319L15.0815 10.0515C14.9664 9.86359 14.8462 9.67719 14.7814 9.59074L14.7723 9.57667L14.7712 9.57735C14.753 9.55398 14.7405 9.54081 14.7355 9.54081C14.7163 9.5456 14.587 9.75631 14.0075 10.7332C13.9357 10.8529 13.8304 11.0349 13.7777 11.1355L13.6771 11.3175L13.678 11.319L13.6754 11.3206L13.7481 11.4403L13.8016 11.533C13.8186 11.5621 13.8362 11.5893 13.8534 11.6136L14.021 11.8894C14.0417 11.9348 14.0703 11.9862 14.1033 12.0358C14.1799 12.1507 14.2805 12.3135 14.3284 12.3997C14.3405 12.4215 14.3535 12.4412 14.3666 12.4581L16.4381 15.8669L16.1913 16.0105C16.0508 16.09 15.9837 16.1255 15.9412 16.1276L13.3502 12.0996L13.2844 11.9927L13.0498 12.3758L13.0321 12.4051L12.0204 14.0497L12.0177 14.0517L14.0413 17.2329C13.7841 17.4346 12.0743 18.6072 11.9637 18.6072C11.8392 18.6072 9.60183 17.0688 9.63056 17.0162C9.64077 16.9958 10.3309 15.8249 11.1691 14.4029L11.1703 14.4007C11.9048 13.1547 12.7526 11.7163 13.3563 10.6901C14.0746 9.47377 14.3715 8.93263 14.3236 8.91826C14.2901 8.90389 13.8112 8.8991 13.2653 8.90868L12.2692 8.92305L9.97057 12.711C9.12425 14.1087 8.35948 15.3691 7.9291 16.0784L7.92811 16.08C7.71621 16.4292 7.58554 16.6446 7.56657 16.6762L7.46122 16.8486L9.24266 17.8734C10.2244 18.4385 11.1582 18.97 11.3258 19.061C11.6754 19.2478 12.0777 19.31 12.3602 19.2142C12.547 19.1568 17.8099 16.1254 18.0733 15.9291C18.1547 15.8669 18.2936 15.6801 18.375 15.5125L18.5186 15.2156L18.509 11.8873L18.4947 8.5591L18.3797 8.33402C18.3175 8.20951 18.2074 8.05148 18.1403 7.98923ZM17.6046 13.9979L17.6087 14.004V13.9952L17.6046 13.9979Z" fill="white"/>
<path d="M17.7058 14.0677L14.7384 9.51651L13.6271 11.3001L16.4964 16.0353L17.7542 15.4306L17.7058 14.0677Z" fill="#24A2EE"/>
<path d="M16.2598 16.551L13.2925 11.9998L12.0158 14.0359L14.3975 17.8489L15.9204 17.2305L16.2598 16.551Z" fill="#24A2EE"/>
<path fill-rule="evenodd" clip-rule="evenodd" d="M6.4535 8.80645L12.0001 5.61098L17.5466 8.80645V15.1935L12.0001 18.389L7.92836 16.0432L7.38589 16.9288L11.8476 19.4993C11.942 19.5537 12.0581 19.5537 12.1525 19.4993L18.4318 15.8817C18.5264 15.8271 18.5847 15.7263 18.5847 15.6171V8.38291C18.5847 8.27373 18.5264 8.17285 18.4318 8.11835L12.1525 4.5007C12.0581 4.44634 11.942 4.44634 11.8476 4.5007L5.56827 8.11835C5.47366 8.17285 5.41536 8.27373 5.41536 8.38291V15.6171C5.41536 15.7263 5.47366 15.8271 5.56827 15.8817L6.82338 16.6047L7.38251 15.7288L6.4535 15.1935V8.80645Z" fill="#98BCDC"/>
<path d="M14.412 8.87723L12.2695 8.9077L7.3848 16.9326L9.10811 17.9303L14.412 8.87723Z" fill="white"/>
<path d="M9.09163 9.60884C9.58089 8.80848 10.9819 8.81178 11.6213 8.91348L6.82124 16.6036C6.65824 16.5098 6.25399 16.2773 5.94102 16.0979C5.52747 15.8609 5.45916 15.8546 5.41525 15.6351V15.2095C6.43686 13.6761 8.60238 10.4092 9.09163 9.60884Z" fill="white"/>
</svg>
